<?xml version="1.0" standalone="no"?>
<!DOCTYPE svg PUBLIC "-//W3C//DTD SVG 1.1//EN" 
  "http://www.w3.org/Graphics/SVG/1.1/DTD/svg11.dtd">
 
<svg version="1.1" width="300" height="300" xmlns:xlink="http://www.w3.org/1999/xlink"><g transform="translate(0 179.1899299621582)"><g width="69" height="69" transform="translate(115.49964910000563 -109.86046600341797)" fill="#a2a2a2"><g transform="translate(0 51.26355)"><path d="M30.719,18.446c-2.004,0-3.629,1.624-3.629,3.629s1.625,3.63,3.629,3.63c2.005,0,3.63-1.625,3.63-3.63  S32.724,18.446,30.719,18.446z M30.719,24.626c-1.408,0-2.55-1.142-2.55-2.551c0-1.407,1.142-2.551,2.55-2.551  c1.409,0,2.551,1.144,2.551,2.551C33.271,23.484,32.128,24.626,30.719,24.626z" transform="scale(0.69 0.69)"></path><path d="M69.28,18.446c-2.006,0-3.632,1.624-3.632,3.629s1.626,3.63,3.632,3.63c2.004,0,3.63-1.625,3.63-3.63  S71.284,18.446,69.28,18.446z M69.28,24.626c-1.41,0-2.552-1.142-2.552-2.551c0-1.407,1.142-2.551,2.552-2.551  c1.408,0,2.55,1.144,2.55,2.551C71.83,23.484,70.688,24.626,69.28,24.626z" transform="scale(0.69 0.69)"></path><path d="M99.505,6.445c-1.437,1.592-3.406,2.642-5.325,3.532c-3.007,1.396-6.209,2.38-9.399,3.256  c-9.748,2.677-18.736,3.718-28.729,5.058c0.021-0.207,0.031-0.418,0.031-0.629c0-0.81-0.158-1.583-0.445-2.287l9.076-1.246  c0,0,0.48-0.094,0.466-0.222s-0.505-0.108-0.505-0.108l-9.364,0.893c-0.949-1.693-2.684-2.887-4.711-3.084L50.28,1.046  c0,0-0.01-1.046-0.28-1.046c-0.272,0-0.282,1.046-0.282,1.046l-0.315,10.561c-2.028,0.198-3.763,1.392-4.712,3.084l-9.366-0.893  c0,0-0.488-0.02-0.503,0.108c-0.016,0.128,0.465,0.222,0.465,0.222l9.077,1.246c-0.287,0.704-0.447,1.478-0.447,2.287  c0,0.211,0.012,0.422,0.034,0.629c-9.993-1.34-18.983-2.381-28.729-5.058c-3.192-0.876-6.392-1.859-9.402-3.256  C3.899,9.087,1.93,8.037,0.495,6.445C0.24,6.162-0.174,6.579,0.079,6.86c0.044,0.051,0.089,0.101,0.136,0.15  c1.497,1.576,3.496,2.656,5.459,3.542c3.019,1.368,6.195,2.378,9.389,3.248c9.869,2.685,19.653,5.722,29.775,7.081  c0.001,0,0.001-0.002,0.003-0.002c1.075,1.721,2.981,2.864,5.16,2.864c2.176,0,4.086-1.144,5.161-2.864v0.002  c10.123-1.359,19.908-4.396,29.774-7.081c3.194-0.869,6.371-1.88,9.392-3.248c1.961-0.886,3.959-1.966,5.457-3.542  c0.046-0.049,0.092-0.099,0.137-0.15C100.175,6.579,99.759,6.162,99.505,6.445z M53.616,16.5c-0.098,0.275-1.117,0.414-1.322,0.438  c-0.008,0-0.017,0.002-0.024,0.002c-0.01,0.003-0.015,0.003-0.015,0.003l-1.866,0.052H49.61l-1.865-0.052c0,0-0.005,0-0.016-0.003  c-0.008,0-0.018-0.002-0.022-0.002c-0.206-0.024-1.228-0.163-1.324-0.438c-0.014-0.042-0.011-0.084,0.003-0.128l-0.005,0.002  c0,0,0.004-0.01,0.01-0.027c0.004-0.008,0.006-0.017,0.012-0.026c0.071-0.174,0.31-0.722,0.497-0.828c0.171-0.099,0.785,0,0.785,0  l1.925,0.178h0.778l1.926-0.178c0,0,0.614-0.099,0.784,0c0.187,0.106,0.425,0.654,0.497,0.828c0.005,0.01,0.009,0.019,0.012,0.026  c0.007,0.018,0.012,0.027,0.012,0.027l-0.005-0.002C53.626,16.416,53.632,16.458,53.616,16.5z" transform="scale(0.69 0.69)"></path></g></g><g transform="translate(43.73158931732178 0)" fill="#e82c69"><path d="M176 0V1432H608L977 645L1348 1432H1778V0H1458V901L1071 119H881L496 901V0H176Z " transform="scale(0.013565891472868217 -0.013565891472868217)"></path><path d="M-10 0L608 1432H918L1536 0H1196L1063 309H463L330 0H-10ZM584 590H942L764 1006Z " transform="scale(0.013565891472868217 -0.013565891472868217) translate(1953.0000000000002 0)"></path><path d="M176 0V1432H496V844L1036 1432H1432L862 799Q936 697 1134.5 417T1432 0H1059L639 565L496 406V0H176Z " transform="scale(0.013565891472868217 -0.013565891472868217) translate(3478 0)"></path><path d="M176 0V1432H1208V1147H496V852H1137V580H496V283H1231V0H176Z " transform="scale(0.013565891472868217 -0.013565891472868217) translate(4931.999999999999 0)"></path><path d="M0 0 " transform="scale(0.013565891472868217 -0.013565891472868217) translate(6270.999999999999 0)"></path><path d="M176 0V1432H608L977 645L1348 1432H1778V0H1458V901L1071 119H881L496 901V0H176Z " transform="scale(0.013565891472868217 -0.013565891472868217) translate(6810.999999999999 0)"></path><path d="M-23 1432H324L633 899L942 1432H1288L793 565V0H473V565Z " transform="scale(0.013565891472868217 -0.013565891472868217) translate(8763.999999999998 0)"></path><path d="M0 0 " transform="scale(0.013565891472868217 -0.013565891472868217) translate(10029 0)"></path><path d="M-6 1432H340L705 520L1069 1432H1415L840 0H569Z " transform="scale(0.013565891472868217 -0.013565891472868217) translate(10569 0)"></path><path d="M176 0V1432H496V0H176Z " transform="scale(0.013565891472868217 -0.013565891472868217) translate(11978 0)"></path><path d="M74 236L264 469Q495 266 692 266Q780 266 830.5 304T881 406.5T827.5 509T616 586Q366 645 250.5 740.5T135 1039.5T281.5 1353.5T647 1464Q790 1464 933.5 1415T1184 1276L1022 1042Q836 1183 637 1184Q557 1184 511 1146T465 1045.5T521.5 946T781.5 859T1097.5 708.5T1210 415.5T1066 103.5T686 -16Q346 -16 74 236Z " transform="scale(0.013565891472868217 -0.013565891472868217) translate(12649 0)"></path><path d="M-10 0L608 1432H918L1536 0H1196L1063 309H463L330 0H-10ZM584 590H942L764 1006Z " transform="scale(0.013565891472868217 -0.013565891472868217) translate(13955.000000000002 0)"></path></g></g><defs></defs></svg>